<svg version="1.1" id="Layer_1" xmlns="http://www.w3.org/2000/svg" xmlns:xlink="http://www.w3.org/1999/xlink" x="0px" y="0px"
	 width="100%" viewBox="0 0 190 114" enable-background="new 0 0 190 114" xml:space="preserve">
<path fill="#000000" opacity="1.000000" stroke="none" 
	d="
M1.000000,26.000000 
	C1.000000,17.672880 1.000000,9.345762 0.999999,1.013982 
	C64.279892,1.009321 127.559784,1.009321 190.919830,1.009321 
	C190.919830,38.918079 190.919830,76.836365 190.919830,114.877335 
	C127.666809,114.877335 64.333443,114.877335 1.000039,114.882370 
	C1.000000,92.570702 1.000000,70.254013 1.300030,47.182693 
	C2.783758,48.619179 3.967456,50.810291 5.160257,53.358574 
	C9.839074,63.127945 14.508786,72.540138 19.202919,82.311218 
	C20.788803,85.794708 22.350267,88.919327 23.961302,92.430511 
	C25.301495,94.220306 26.445982,96.645134 27.907429,96.854187 
	C35.165314,97.892418 42.495327,98.556152 49.821537,98.955284 
	C59.722858,99.494705 69.643929,99.953308 79.556419,99.951263 
	C105.256699,99.945969 131.066345,101.331703 156.456406,95.913254 
	C164.127441,94.276192 171.482407,91.476974 173.992538,82.670036 
	C176.616943,73.462135 177.750702,64.057961 176.959671,54.524246 
	C176.104935,44.222950 172.643845,36.030369 161.007263,31.833624 
	C151.688644,28.472857 142.422928,25.622683 132.479080,24.932056 
	C115.971992,23.785593 99.503204,22.022329 82.985367,21.124420 
	C75.113358,20.696499 67.164352,21.633129 59.252659,22.003729 
	C53.002754,22.296486 46.754417,22.983496 40.509186,22.940704 
	C27.239458,22.849779 14.513557,29.540728 1.000000,26.000000 
z"/>
<path fill="#FCFCFC" opacity="1.000000" stroke="none" 
	d="
M1.000000,26.416666 
	C14.513557,29.540728 27.239458,22.849779 40.509186,22.940704 
	C46.754417,22.983496 53.002754,22.296486 59.252659,22.003729 
	C67.164352,21.633129 75.113358,20.696499 82.985367,21.124420 
	C99.503204,22.022329 115.971992,23.785593 132.479080,24.932056 
	C142.422928,25.622683 151.688644,28.472857 161.007263,31.833624 
	C172.643845,36.030369 176.104935,44.222950 176.959671,54.524246 
	C177.750702,64.057961 176.616943,73.462135 173.992538,82.670036 
	C171.482407,91.476974 164.127441,94.276192 156.456406,95.913254 
	C131.066345,101.331703 105.256699,99.945969 79.556419,99.951263 
	C69.643929,99.953308 59.722858,99.494705 49.821537,98.955284 
	C42.495327,98.556152 35.165314,97.892418 27.907429,96.854187 
	C26.445982,96.645134 25.301495,94.220306 24.288979,92.531082 
	C25.643883,91.779587 27.152468,91.619331 27.730722,90.801376 
	C33.543056,82.579659 39.202713,74.249992 45.243134,65.798447 
	C46.501560,64.895401 47.676479,64.310852 48.296032,63.363213 
	C50.306259,60.288456 52.112965,57.080643 54.036018,54.374969 
	C54.054832,56.977810 53.267597,59.569702 54.190983,61.181728 
	C55.691177,63.800735 57.968670,66.912109 60.558994,67.694977 
	C62.960072,68.420647 66.250900,66.497490 69.025772,65.420738 
	C69.528679,65.225594 69.432297,63.486012 69.612572,62.459427 
	C68.577858,62.680508 67.208023,62.558887 66.568588,63.184181 
	C64.256386,65.445282 60.977390,66.038727 59.710148,63.609806 
	C58.316742,60.939056 58.578056,57.112198 59.108719,53.955509 
	C59.227501,53.248917 63.457096,53.085850 65.809372,52.962143 
	C67.056206,52.896576 68.335754,53.453064 69.600533,53.728737 
	C66.975487,47.484940 62.396156,48.633842 57.867462,48.777187 
	C60.173801,44.571301 62.611557,40.721233 65.362312,36.376831 
	C43.375298,34.540035 22.187649,32.770020 1.000000,31.000000 
	C1.000000,29.611111 1.000000,28.222221 1.000000,26.416666 
M69.400391,85.201965 
	C69.511063,84.874794 69.400368,84.664619 69.730026,84.540688 
	C69.500107,84.074577 69.270187,83.608475 68.390945,83.194252 
	C68.179680,83.778252 67.968407,84.362244 67.497772,85.161003 
	C67.444893,85.259254 67.329880,85.374474 67.351181,85.452461 
	C67.407463,85.658539 67.522820,85.848473 67.813332,86.653419 
	C68.222389,86.718987 68.631454,86.784554 69.669403,86.706261 
	C69.469048,86.280312 69.268692,85.854362 69.400391,85.201965 
M84.317490,82.308601 
	C84.849464,83.174164 85.381447,84.039719 86.494659,84.866295 
	C87.005157,84.604012 87.515656,84.341721 87.938225,84.675934 
	C87.588913,85.131920 87.239609,85.587906 86.132858,86.010094 
	C85.484367,86.058479 84.835876,86.106857 84.187386,86.155243 
	C84.185455,86.422081 84.183517,86.688919 84.181587,86.955757 
	C85.084320,86.955757 85.987061,86.955757 87.590065,86.925468 
	C89.406288,87.050507 91.072632,82.948471 93.172142,86.758461 
	C93.353607,87.087776 96.305664,86.701820 96.643761,86.004623 
	C99.277573,80.573334 100.537491,85.150253 102.780144,87.841949 
	C103.615677,85.467896 104.221680,84.002357 104.543526,82.476883 
	C104.579933,82.304344 102.952698,81.390038 102.203285,81.506165 
	C97.478745,82.238235 92.784264,83.164291 88.169662,83.417809 
	C87.080841,82.990829 85.992012,82.563858 84.317490,82.308601 
M160.518631,57.095150 
	C160.544617,54.958725 161.160904,51.194397 160.499191,50.954453 
	C156.678970,49.569187 152.556870,49.016438 148.161575,48.103760 
	C148.161575,55.398869 148.161575,61.481682 148.161575,67.560478 
	C151.459793,67.712044 151.459793,67.712044 152.238388,60.311352 
	C156.376877,59.009972 156.898727,62.284946 157.652863,64.847855 
	C158.411636,67.426468 159.277512,69.093414 162.372452,67.216019 
	C161.644577,65.168427 160.825516,63.175251 160.248047,61.114380 
	C159.939651,60.013771 160.048203,58.796341 160.518631,57.095150 
M135.284409,63.378822 
	C134.781448,60.594910 135.841995,59.544243 138.744644,59.609180 
	C140.173264,59.641140 141.627182,58.542908 143.069641,57.956104 
	C141.567154,57.429234 140.073471,56.492352 138.560379,56.459892 
	C135.299561,56.389946 134.435181,55.193718 135.946060,52.039185 
	C138.010132,52.039185 140.170898,52.165985 142.300674,51.964729 
	C142.971329,51.901360 143.558823,50.958206 144.184387,50.417721 
	C143.538376,49.892689 142.911224,48.943508 142.243210,48.913822 
	C138.793289,48.760494 135.332916,48.842625 131.748901,48.842625 
	C131.748901,55.453510 131.748901,61.645084 131.748901,68.042747 
	C135.419739,68.042747 138.742340,68.149529 142.048981,67.966980 
	C142.866302,67.921860 143.631744,66.936981 144.421036,66.384094 
	C143.581390,65.870605 142.792877,65.057732 141.891815,64.903862 
	C139.798569,64.546387 137.651016,64.506882 135.284409,63.378822 
M85.545097,68.005821 
	C86.478577,67.950394 87.412056,67.894974 88.871468,67.808327 
	C86.080215,64.190636 83.594185,60.968533 81.190178,57.852749 
	C83.596046,54.776875 85.698120,52.089394 87.948318,49.212536 
	C81.884071,47.638039 81.677406,54.452080 77.566948,55.744270 
	C77.408142,53.386814 77.266243,51.280350 77.124611,49.177769 
	C73.197258,49.401157 72.618446,53.073071 74.065033,67.967636 
	C80.071365,68.199272 75.574730,62.392464 78.362305,60.737320 
	C80.484871,63.094055 82.653671,65.502129 85.545097,68.005821 
M95.593506,48.853302 
	C94.172569,48.956608 92.751640,49.059917 91.436234,49.155552 
	C91.436234,55.656082 91.436234,61.725292 91.436234,68.027313 
	C95.226189,68.027313 98.708832,68.107170 102.181641,67.957985 
	C102.852928,67.929161 103.485748,67.004692 104.136314,66.493378 
	C103.510468,65.950142 102.920082,64.996101 102.252312,64.938454 
	C99.985062,64.742676 97.690468,64.863663 95.208565,64.863663 
	C95.138496,63.603355 95.020485,62.800331 95.070961,62.008049 
	C95.119057,61.253185 95.342941,60.509525 95.476677,59.826653 
	C102.218132,59.571091 102.218132,59.571091 102.554955,56.632954 
	C100.131485,56.477234 97.716209,56.322041 95.037041,56.149891 
	C95.159653,54.597252 95.256111,53.375771 95.362839,52.024357 
	C97.859436,52.024357 100.024490,52.150707 102.158585,51.949150 
	C102.818657,51.886810 103.394463,50.932274 104.008842,50.386227 
	C103.353897,49.877190 102.740646,49.011200 102.035866,48.928898 
	C100.229546,48.717949 98.382553,48.855335 95.593506,48.853302 
M111.196960,57.555687 
	C111.197159,60.046463 111.295334,62.542053 111.173241,65.026817 
	C111.013275,68.282234 112.491722,68.523422 115.340370,67.394089 
	C115.340370,62.230598 115.340370,57.175419 115.340370,52.677967 
	C117.579468,51.952187 119.298058,51.395123 121.016647,50.838058 
	C120.872704,50.179920 120.728767,49.521782 120.584824,48.863644 
	C118.309883,48.863644 116.024239,48.725056 113.762810,48.899868 
	C111.129356,49.103436 108.517113,49.581245 105.895660,49.940044 
	C107.481056,50.726639 109.068359,51.509449 110.648544,52.306370 
	C110.788406,52.376911 110.881889,52.539436 111.196877,52.867519 
	C111.196877,53.962170 111.196877,55.275368 111.196960,57.555687 
M124.731400,53.534878 
	C124.264503,58.075325 123.740608,62.612431 123.473328,67.164597 
	C123.457413,67.435608 125.498497,67.827400 127.021751,68.299019 
	C127.021751,65.071625 127.208885,62.573700 126.966385,60.118202 
	C126.746750,57.894192 126.058510,55.716457 124.731400,53.534878 
M80.005013,84.496925 
	C79.726387,83.475311 79.447762,82.453697 79.500320,82.646408 
	C76.079315,82.409515 73.591141,82.237221 71.103661,82.064964 
	C73.829140,86.595955 76.366112,87.489952 80.005013,84.496925 
M59.650291,84.806824 
	C60.070599,84.491920 60.490906,84.177010 60.911213,83.862099 
	C60.634315,83.547264 60.357418,83.232430 60.080524,82.917595 
	C59.775791,83.354317 59.471058,83.791031 59.650291,84.806824 
M137.864334,84.901741 
	C137.769562,84.781219 137.689819,84.640388 137.570953,84.552429 
	C137.534836,84.525719 137.308029,84.646103 137.308685,84.697311 
	C137.315964,85.261353 137.350937,85.825027 137.378403,86.388809 
	C137.564621,86.089386 137.750839,85.789963 137.864334,84.901741 
z"/>
<path fill="#FBFCFA" opacity="1.000000" stroke="none" 
	d="
M1.000000,39.000000 
	C1.000000,37.285625 1.000000,35.571247 1.415257,33.488457 
	C21.672281,34.782204 41.514050,36.444370 62.576740,38.208817 
	C56.617798,43.810772 55.439812,51.803680 48.050621,54.697838 
	C47.496082,54.915031 47.180965,55.934647 46.905884,56.640244 
	C45.858631,59.326496 44.873482,62.036964 43.590511,64.943161 
	C37.628517,73.224358 31.941135,81.300774 25.984325,89.759789 
	C23.492102,85.258003 21.426413,81.526688 19.319609,77.802155 
	C19.278496,77.808945 19.218929,77.867233 19.279104,77.552948 
	C19.196569,76.837029 19.053862,76.435387 18.834526,75.686600 
	C15.896244,69.462753 13.034591,63.586052 10.103603,57.478706 
	C9.929700,56.868271 9.684363,56.716568 9.263807,56.789825 
	C9.229353,56.786694 9.234270,56.855709 9.319929,56.536884 
	C9.002736,55.771843 8.599884,55.325626 8.213482,54.856663 
	C8.229931,54.833916 8.242910,54.779293 8.318946,54.401070 
	C5.929988,49.015232 3.464994,44.007618 1.000000,39.000000 
M32.493561,51.997231 
	C33.257645,52.925182 34.603989,53.807617 34.680729,54.789303 
	C34.951557,58.253906 34.597500,61.769173 34.901066,65.228317 
	C34.995022,66.298943 36.428680,67.251999 37.248966,68.258888 
	C37.680202,67.937637 38.111443,67.616386 38.542679,67.295128 
	C38.542679,62.341347 38.542679,57.387562 38.542679,52.922932 
	C40.629387,52.002541 42.330982,51.252018 44.032578,50.501492 
	C43.831104,50.063198 43.629631,49.624905 43.428158,49.186611 
	C38.682781,49.186611 33.937405,49.186611 29.192030,49.186611 
	C29.039629,49.546909 28.887228,49.907207 28.734829,50.267506 
	C29.688927,50.843449 30.643026,51.419392 32.493561,51.997231 
z"/>
<path fill="#8BD869" opacity="1.000000" stroke="none" 
	d="
M43.865124,64.738380 
	C44.873482,62.036964 45.858631,59.326496 46.905884,56.640244 
	C47.180965,55.934647 47.496082,54.915031 48.050621,54.697838 
	C55.439812,51.803680 56.617798,43.810772 62.576740,38.208817 
	C41.514050,36.444370 21.672281,34.782204 1.415257,33.060020 
	C1.000000,32.555557 1.000000,32.111111 1.000000,31.333332 
	C22.187649,32.770020 43.375298,34.540035 65.362312,36.376831 
	C62.611557,40.721233 60.173801,44.571301 57.863434,48.740387 
	C57.990814,49.059410 58.064125,49.048443 57.820225,48.904984 
	C57.395435,49.225998 57.214546,49.690472 56.924332,50.440987 
	C55.876011,51.792709 54.937023,52.858383 53.998039,53.924061 
	C52.112965,57.080643 50.306259,60.288456 48.296032,63.363213 
	C47.676479,64.310852 46.501560,64.895401 45.009483,65.655403 
	C44.247059,65.355865 44.056091,65.047127 43.865124,64.738380 
z"/>
<path fill="#92DF71" opacity="1.000000" stroke="none" 
	d="
M1.000000,39.444164 
	C3.464994,44.007618 5.929988,49.015232 8.018784,54.319626 
	C6.812109,54.078064 5.981632,53.539734 5.151154,53.001400 
	C3.967456,50.810291 2.783758,48.619179 1.300030,46.714035 
	C1.000000,44.629444 1.000000,42.258884 1.000000,39.444164 
z"/>
<path fill="#90DE6E" opacity="1.000000" stroke="none" 
	d="
M43.590511,64.943161 
	C44.056091,65.047127 44.247059,65.355865 44.671677,65.807655 
	C39.202713,74.249992 33.543056,82.579659 27.730722,90.801376 
	C27.152468,91.619331 25.643883,91.779587 24.239410,92.144516 
	C22.350267,88.919327 20.788803,85.794708 19.414351,82.084946 
	C19.521151,80.264992 19.440937,79.030182 19.360722,77.795372 
	C21.426413,81.526688 23.492102,85.258003 25.984325,89.759789 
	C31.941135,81.300774 37.628517,73.224358 43.590511,64.943161 
z"/>
<path fill="#98E17A" opacity="1.000000" stroke="none" 
	d="
M19.319611,77.802155 
	C19.440937,79.030182 19.521151,80.264992 19.389931,81.726074 
	C14.508786,72.540138 9.839074,63.127945 5.160258,53.358574 
	C5.981632,53.539734 6.812109,54.078064 7.942748,54.697845 
	C8.242910,54.779293 8.229931,54.833916 8.173077,55.176323 
	C8.488905,55.964394 8.861588,56.410049 9.234270,56.855709 
	C9.234270,56.855709 9.229353,56.786694 9.178903,57.051056 
	C9.279967,57.617176 9.431483,57.918938 9.582998,58.220695 
	C9.779647,58.050247 9.976294,57.879799 10.172939,57.709351 
	C13.034591,63.586052 15.896244,69.462753 18.617142,75.843964 
	C18.723900,76.854729 18.971416,77.360977 19.218929,77.867233 
	C19.218929,77.867233 19.278496,77.808945 19.319611,77.802155 
z"/>
<path fill="#0C0C0C" opacity="1.000000" stroke="none" 
	d="
M160.243607,57.363392 
	C160.048203,58.796341 159.939651,60.013771 160.248047,61.114380 
	C160.825516,63.175251 161.644577,65.168427 162.372452,67.216019 
	C159.277512,69.093414 158.411636,67.426468 157.652863,64.847855 
	C156.898727,62.284946 156.376877,59.009972 152.238388,60.311352 
	C151.459793,67.712044 151.459793,67.712044 148.161575,67.560478 
	C148.161575,61.481682 148.161575,55.398869 148.161575,48.103760 
	C152.556870,49.016438 156.678970,49.569187 160.499191,50.954453 
	C161.160904,51.194397 160.544617,54.958725 160.243607,57.363392 
M151.872940,54.463463 
	C152.843384,55.303810 153.733444,56.658703 154.808914,56.826706 
	C155.719742,56.968983 157.202957,55.948936 157.740265,55.035751 
	C158.059113,54.493835 156.963577,52.303829 156.629501,52.332214 
	C155.022186,52.468781 153.457596,53.108223 151.872940,54.463463 
z"/>
<path fill="#1A1A1A" opacity="1.000000" stroke="none" 
	d="
M135.404938,63.858665 
	C137.651016,64.506882 139.798569,64.546387 141.891815,64.903862 
	C142.792877,65.057732 143.581390,65.870605 144.421036,66.384094 
	C143.631744,66.936981 142.866302,67.921860 142.048981,67.966980 
	C138.742340,68.149529 135.419739,68.042747 131.748901,68.042747 
	C131.748901,61.645084 131.748901,55.453510 131.748901,48.842625 
	C135.332916,48.842625 138.793289,48.760494 142.243210,48.913822 
	C142.911224,48.943508 143.538376,49.892689 144.184387,50.417717 
	C143.558823,50.958206 142.971329,51.901360 142.300674,51.964729 
	C140.170898,52.165985 138.010132,52.039185 135.946060,52.039185 
	C134.435181,55.193718 135.299561,56.389946 138.560379,56.459892 
	C140.073471,56.492352 141.567154,57.429234 143.069641,57.956108 
	C141.627182,58.542908 140.173264,59.641140 138.744644,59.609180 
	C135.841995,59.544243 134.781448,60.594910 135.404938,63.858665 
z"/>
<path fill="#0B0B0B" opacity="1.000000" stroke="none" 
	d="
M85.183784,67.958008 
	C82.653671,65.502129 80.484871,63.094055 78.362305,60.737320 
	C75.574730,62.392464 80.071365,68.199272 74.065033,67.967636 
	C72.618446,53.073071 73.197258,49.401157 77.124611,49.177769 
	C77.266243,51.280350 77.408142,53.386814 77.566948,55.744270 
	C81.677406,54.452080 81.884071,47.638039 87.948318,49.212536 
	C85.698120,52.089394 83.596046,54.776875 81.190178,57.852749 
	C83.594185,60.968533 86.080215,64.190636 88.871468,67.808327 
	C87.412056,67.894974 86.478577,67.950394 85.183784,67.958008 
z"/>
<path fill="#131313" opacity="1.000000" stroke="none" 
	d="
M96.072662,48.853371 
	C98.382553,48.855335 100.229546,48.717949 102.035866,48.928898 
	C102.740646,49.011200 103.353897,49.877190 104.008850,50.386230 
	C103.394463,50.932274 102.818657,51.886810 102.158585,51.949150 
	C100.024490,52.150707 97.859436,52.024357 95.362839,52.024357 
	C95.256111,53.375771 95.159653,54.597252 95.037041,56.149891 
	C97.716209,56.322041 100.131485,56.477234 102.554955,56.632954 
	C102.218132,59.571091 102.218132,59.571091 95.476677,59.826653 
	C95.342941,60.509525 95.119057,61.253185 95.070961,62.008049 
	C95.020485,62.800331 95.138496,63.603355 95.208565,64.863663 
	C97.690468,64.863663 99.985062,64.742676 102.252312,64.938454 
	C102.920082,64.996101 103.510468,65.950142 104.136322,66.493378 
	C103.485748,67.004692 102.852928,67.929161 102.181641,67.957985 
	C98.708832,68.107170 95.226189,68.027313 91.436234,68.027313 
	C91.436234,61.725292 91.436234,55.656082 91.436234,49.155552 
	C92.751640,49.059917 94.172569,48.956608 96.072662,48.853371 
z"/>
<path fill="#0F0F0F" opacity="1.000000" stroke="none" 
	d="
M54.036018,54.374969 
	C54.937023,52.858383 55.876011,51.792709 57.169144,50.333485 
	C57.703571,49.642769 57.883850,49.345608 58.064125,49.048447 
	C58.064125,49.048443 57.990814,49.059410 57.994843,49.096210 
	C62.396156,48.633842 66.975487,47.484940 69.600533,53.728737 
	C68.335754,53.453064 67.056206,52.896576 65.809372,52.962143 
	C63.457096,53.085850 59.227501,53.248917 59.108719,53.955509 
	C58.578056,57.112198 58.316742,60.939056 59.710148,63.609806 
	C60.977390,66.038727 64.256386,65.445282 66.568588,63.184181 
	C67.208023,62.558887 68.577858,62.680508 69.612572,62.459427 
	C69.432297,63.486012 69.528679,65.225594 69.025772,65.420738 
	C66.250900,66.497490 62.960072,68.420647 60.558994,67.694977 
	C57.968670,66.912109 55.691177,63.800735 54.190983,61.181728 
	C53.267597,59.569702 54.054832,56.977810 54.036018,54.374969 
z"/>
<path fill="#0E0E0E" opacity="1.000000" stroke="none" 
	d="
M111.196915,57.072124 
	C111.196877,55.275368 111.196877,53.962170 111.196877,52.867519 
	C110.881889,52.539436 110.788406,52.376911 110.648544,52.306370 
	C109.068359,51.509449 107.481056,50.726639 105.895660,49.940044 
	C108.517113,49.581245 111.129356,49.103436 113.762810,48.899868 
	C116.024239,48.725056 118.309883,48.863644 120.584824,48.863644 
	C120.728767,49.521782 120.872704,50.179920 121.016647,50.838058 
	C119.298058,51.395123 117.579468,51.952187 115.340370,52.677967 
	C115.340370,57.175419 115.340370,62.230598 115.340370,67.394089 
	C112.491722,68.523422 111.013275,68.282234 111.173241,65.026817 
	C111.295334,62.542053 111.197159,60.046463 111.196915,57.072124 
z"/>
<path fill="#181818" opacity="1.000000" stroke="none" 
	d="
M125.154144,53.526596 
	C126.058510,55.716457 126.746750,57.894192 126.966385,60.118202 
	C127.208885,62.573700 127.021751,65.071625 127.021751,68.299019 
	C125.498497,67.827400 123.457413,67.435608 123.473328,67.164597 
	C123.740608,62.612431 124.264503,58.075325 125.154144,53.526596 
z"/>
<path fill="#F5F5F5" opacity="1.000000" stroke="none" 
	d="
M88.079849,84.026260 
	C92.784264,83.164291 97.478745,82.238235 102.203285,81.506165 
	C102.952698,81.390038 104.579933,82.304344 104.543526,82.476883 
	C104.221680,84.002357 103.615677,85.467896 102.780144,87.841949 
	C100.537491,85.150253 99.277573,80.573334 96.643761,86.004623 
	C96.305664,86.701820 93.353607,87.087776 93.172142,86.758461 
	C91.072632,82.948471 89.406288,87.050507 87.297905,86.712677 
	C87.005745,86.499886 86.890297,86.043892 86.890297,86.043892 
	C87.239609,85.587906 87.588913,85.131920 87.970093,84.338646 
	C88.001953,84.001358 88.079849,84.026260 88.079849,84.026260 
z"/>
<path fill="#CFCFCF" opacity="1.000000" stroke="none" 
	d="
M79.943558,84.852242 
	C76.366112,87.489952 73.829140,86.595955 71.103661,82.064964 
	C73.591141,82.237221 76.079315,82.409515 79.500320,82.646408 
	C79.447762,82.453697 79.726387,83.475311 79.943558,84.852242 
z"/>
<path fill="#C1C1C1" opacity="1.000000" stroke="none" 
	d="
M88.014053,84.040398 
	C87.515656,84.341721 87.005157,84.604012 86.225067,84.583794 
	C85.604721,83.579826 85.253960,82.858353 84.903191,82.136887 
	C85.992012,82.563858 87.080841,82.990829 88.124756,83.722031 
	C88.079849,84.026260 88.001953,84.001358 88.014053,84.040398 
z"/>
<path fill="#888888" opacity="1.000000" stroke="none" 
	d="
M69.040512,86.850128 
	C68.631454,86.784554 68.222389,86.718987 67.860947,86.088837 
	C67.858093,85.331589 67.807617,85.138916 67.757141,84.946243 
	C67.968407,84.362244 68.179680,83.778252 68.714386,83.525726 
	C69.047989,84.095284 69.058151,84.333366 69.068306,84.571442 
	C69.400368,84.664619 69.511063,84.874794 69.219025,85.670593 
	C69.038612,86.376190 69.039558,86.613159 69.040512,86.850128 
z"/>
<path fill="#7C7C7C" opacity="1.000000" stroke="none" 
	d="
M84.610336,82.222748 
	C85.253960,82.858353 85.604721,83.579826 85.934448,84.603287 
	C85.381447,84.039719 84.849464,83.174164 84.610336,82.222748 
z"/>
<path fill="#696969" opacity="1.000000" stroke="none" 
	d="
M59.408310,84.517288 
	C59.471058,83.791031 59.775791,83.354317 60.080524,82.917595 
	C60.357418,83.232430 60.634315,83.547264 60.911217,83.862099 
	C60.490906,84.177010 60.070599,84.491920 59.408310,84.517288 
z"/>
<path fill="#0E0E0E" opacity="1.000000" stroke="none" 
	d="
M86.511581,86.026993 
	C86.890297,86.043892 87.005745,86.499886 86.947769,86.727821 
	C85.987061,86.955757 85.084320,86.955757 84.181587,86.955757 
	C84.183517,86.688919 84.185455,86.422081 84.187386,86.155243 
	C84.835876,86.106857 85.484367,86.058479 86.511581,86.026993 
z"/>
<path fill="#9A9A9A" opacity="1.000000" stroke="none" 
	d="
M137.900696,85.196136 
	C137.750839,85.789963 137.564621,86.089386 137.378403,86.388809 
	C137.350937,85.825027 137.315964,85.261353 137.308685,84.697311 
	C137.308029,84.646103 137.534836,84.525719 137.570953,84.552429 
	C137.689819,84.640388 137.769562,84.781219 137.900696,85.196136 
z"/>
<path fill="#6B6B6B" opacity="1.000000" stroke="none" 
	d="
M69.399170,84.556061 
	C69.058151,84.333366 69.047989,84.095284 69.039047,83.499786 
	C69.270187,83.608475 69.500107,84.074577 69.399170,84.556061 
z"/>
<path fill="#D6D6D6" opacity="1.000000" stroke="none" 
	d="
M67.627457,85.053619 
	C67.807617,85.138916 67.858093,85.331589 67.761620,85.784546 
	C67.522820,85.848473 67.407463,85.658539 67.351181,85.452461 
	C67.329880,85.374474 67.444893,85.259254 67.627457,85.053619 
z"/>
<path fill="#6B6B6B" opacity="1.000000" stroke="none" 
	d="
M69.354958,86.778191 
	C69.039558,86.613159 69.038612,86.376190 69.053001,85.783821 
	C69.268692,85.854362 69.469048,86.280312 69.354958,86.778191 
z"/>
<path fill="#010101" opacity="1.000000" stroke="none" 
	d="
M32.045341,51.996281 
	C30.643026,51.419392 29.688927,50.843449 28.734829,50.267506 
	C28.887228,49.907207 29.039629,49.546909 29.192030,49.186611 
	C33.937405,49.186611 38.682781,49.186611 43.428158,49.186611 
	C43.629631,49.624905 43.831104,50.063198 44.032578,50.501492 
	C42.330982,51.252018 40.629387,52.002541 38.542679,52.922932 
	C38.542679,57.387562 38.542679,62.341347 38.542679,67.295128 
	C38.111443,67.616386 37.680202,67.937637 37.248966,68.258888 
	C36.428680,67.251999 34.995022,66.298943 34.901066,65.228317 
	C34.597500,61.769173 34.951557,58.253906 34.680729,54.789303 
	C34.603989,53.807617 33.257645,52.925182 32.045341,51.996281 
z"/>
<path fill="#90DE6E" opacity="1.000000" stroke="none" 
	d="
M19.279106,77.552948 
	C18.971416,77.360977 18.723900,76.854729 18.693769,76.191116 
	C19.053862,76.435387 19.196569,76.837029 19.279106,77.552948 
z"/>
<path fill="#92DF71" opacity="1.000000" stroke="none" 
	d="
M10.103605,57.478706 
	C9.976294,57.879799 9.779647,58.050247 9.582998,58.220695 
	C9.431483,57.918938 9.279967,57.617176 9.213356,57.054184 
	C9.684363,56.716568 9.929700,56.868271 10.103605,57.478706 
z"/>
<path fill="#92DF71" opacity="1.000000" stroke="none" 
	d="
M9.319929,56.536884 
	C8.861588,56.410049 8.488905,55.964394 8.156628,55.199074 
	C8.599884,55.325626 9.002736,55.771843 9.319929,56.536884 
z"/>
<path fill="#FCFCFC" opacity="1.000000" stroke="none" 
	d="
M57.820229,48.904984 
	C57.883850,49.345608 57.703571,49.642769 57.278473,50.047440 
	C57.214546,49.690472 57.395435,49.225998 57.820229,48.904984 
z"/>
<path fill="#F9F9F9" opacity="1.000000" stroke="none" 
	d="
M151.875397,54.016312 
	C153.457596,53.108223 155.022186,52.468781 156.629501,52.332214 
	C156.963577,52.303829 158.059113,54.493835 157.740265,55.035751 
	C157.202957,55.948936 155.719742,56.968983 154.808914,56.826706 
	C153.733444,56.658703 152.843384,55.303810 151.875397,54.016312 
z"/>
</svg>