<svg xmlns="http://www.w3.org/2000/svg" xmlns:xlink="http://www.w3.org/1999/xlink" width="200" zoomAndPan="magnify" viewBox="0 0 150 31.5" height="42" preserveAspectRatio="xMidYMid meet" version="1.0"><defs><g/><clipPath id="aebad73358"><path d="M 1.171875 0 L 148.828125 0 L 148.828125 31.007812 L 1.171875 31.007812 Z M 1.171875 0 " clip-rule="nonzero"/></clipPath><clipPath id="5bfc3d5e64"><path d="M 2.109375 11 L 5 11 L 5 14 L 2.109375 14 Z M 2.109375 11 " clip-rule="nonzero"/></clipPath><clipPath id="8e7aef8451"><path d="M 40 11 L 43.453125 11 L 43.453125 14 L 40 14 Z M 40 11 " clip-rule="nonzero"/></clipPath><clipPath id="ef5b4f96c6"><path d="M 40 27 L 43.453125 27 L 43.453125 30 L 40 30 Z M 40 27 " clip-rule="nonzero"/></clipPath><clipPath id="a913a62502"><path d="M 2.109375 27 L 5 27 L 5 30 L 2.109375 30 Z M 2.109375 27 " clip-rule="nonzero"/></clipPath><clipPath id="580956eb79"><path d="M 2.109375 18 L 5 18 L 5 21 L 2.109375 21 Z M 2.109375 18 " clip-rule="nonzero"/></clipPath><clipPath id="1b5a69d03d"><path d="M 2.109375 20 L 5 20 L 5 23 L 2.109375 23 Z M 2.109375 20 " clip-rule="nonzero"/></clipPath><clipPath id="3318353250"><path d="M 2.109375 13 L 3 13 L 3 20 L 2.109375 20 Z M 2.109375 13 " clip-rule="nonzero"/></clipPath><clipPath id="2c40288882"><path d="M 2.109375 22 L 3 22 L 3 29 L 2.109375 29 Z M 2.109375 22 " clip-rule="nonzero"/></clipPath><clipPath id="2605ec9fb2"><path d="M 40 20 L 43.453125 20 L 43.453125 23 L 40 23 Z M 40 20 " clip-rule="nonzero"/></clipPath><clipPath id="c4c8e67e4b"><path d="M 40 18 L 43.453125 18 L 43.453125 21 L 40 21 Z M 40 18 " clip-rule="nonzero"/></clipPath><clipPath id="b52fd52508"><path d="M 42 22 L 43.453125 22 L 43.453125 29 L 42 29 Z M 42 22 " clip-rule="nonzero"/></clipPath><clipPath id="12885d0239"><path d="M 42 13 L 43.453125 13 L 43.453125 20 L 42 20 Z M 42 13 " clip-rule="nonzero"/></clipPath></defs><g clip-path="url(#aebad73358)"><path fill="#ffffff" d="M 1.171875 0 L 148.828125 0 L 148.828125 31.007812 L 1.171875 31.007812 Z M 1.171875 0 " fill-opacity="1" fill-rule="nonzero"/><path fill="#ffffff" d="M 1.171875 0 L 148.828125 0 L 148.828125 31.007812 L 1.171875 31.007812 Z M 1.171875 0 " fill-opacity="1" fill-rule="nonzero"/></g><path fill="#4f334a" d="M 11.804688 27.394531 C 11.625 27.394531 11.480469 27.25 11.480469 27.074219 C 11.480469 26.894531 11.621094 26.753906 11.796875 26.753906 L 11.804688 26.753906 C 11.980469 26.753906 12.125 26.894531 12.125 27.074219 C 12.125 27.25 11.980469 27.394531 11.804688 27.394531 Z M 11.804688 27.394531 " fill-opacity="1" fill-rule="nonzero"/><path fill="#4f334a" d="M 15.980469 20.972656 C 15.800781 20.972656 15.65625 20.828125 15.65625 20.648438 C 15.65625 20.472656 15.796875 20.328125 15.972656 20.328125 L 15.980469 20.328125 C 16.15625 20.328125 16.300781 20.472656 16.300781 20.648438 C 16.300781 20.828125 16.15625 20.972656 15.980469 20.972656 Z M 15.980469 20.972656 " fill-opacity="1" fill-rule="nonzero"/><path fill="#4f334a" d="M 18.550781 13.902344 C 18.371094 13.902344 18.222656 13.761719 18.222656 13.582031 C 18.222656 13.40625 18.363281 13.261719 18.542969 13.261719 L 18.550781 13.261719 C 18.726562 13.261719 18.871094 13.40625 18.871094 13.582031 C 18.871094 13.761719 18.726562 13.902344 18.550781 13.902344 Z M 18.550781 13.902344 " fill-opacity="1" fill-rule="nonzero"/><path fill="#4f334a" d="M 30.113281 15.1875 C 29.933594 15.1875 29.789062 15.046875 29.789062 14.867188 C 29.789062 14.691406 29.929688 14.546875 30.105469 14.546875 L 30.113281 14.546875 C 30.289062 14.546875 30.433594 14.691406 30.433594 14.867188 C 30.433594 15.046875 30.289062 15.1875 30.113281 15.1875 Z M 30.113281 15.1875 " fill-opacity="1" fill-rule="nonzero"/><path fill="#4f334a" d="M 24.332031 21.613281 C 24.152344 21.613281 24.007812 21.46875 24.007812 21.292969 C 24.007812 21.113281 24.148438 20.972656 24.324219 20.972656 L 24.332031 20.972656 C 24.507812 20.972656 24.652344 21.113281 24.652344 21.292969 C 24.652344 21.46875 24.507812 21.613281 24.332031 21.613281 Z M 24.332031 21.613281 " fill-opacity="1" fill-rule="nonzero"/><path fill="#4f334a" d="M 13.730469 27.394531 C 13.554688 27.394531 13.40625 27.25 13.40625 27.074219 C 13.40625 26.894531 13.546875 26.753906 13.722656 26.753906 L 13.730469 26.753906 C 13.90625 26.753906 14.050781 26.894531 14.050781 27.074219 C 14.050781 27.25 13.90625 27.394531 13.730469 27.394531 Z M 13.730469 27.394531 " fill-opacity="1" fill-rule="nonzero"/><path fill="#4f334a" d="M 15.65625 27.394531 C 15.480469 27.394531 15.332031 27.25 15.332031 27.074219 C 15.332031 26.894531 15.472656 26.753906 15.652344 26.753906 L 15.65625 26.753906 C 15.835938 26.753906 15.980469 26.894531 15.980469 27.074219 C 15.980469 27.25 15.835938 27.394531 15.65625 27.394531 Z M 15.65625 27.394531 " fill-opacity="1" fill-rule="nonzero"/><path fill="#4f334a" d="M 17.585938 27.394531 C 17.40625 27.394531 17.261719 27.25 17.261719 27.074219 C 17.261719 26.894531 17.402344 26.753906 17.578125 26.753906 L 17.585938 26.753906 C 17.761719 26.753906 17.90625 26.894531 17.90625 27.074219 C 17.90625 27.25 17.761719 27.394531 17.585938 27.394531 Z M 17.585938 27.394531 " fill-opacity="1" fill-rule="nonzero"/><path fill="#4f334a" d="M 19.511719 27.394531 C 19.335938 27.394531 19.1875 27.25 19.1875 27.074219 C 19.1875 26.894531 19.328125 26.753906 19.507812 26.753906 L 19.511719 26.753906 C 19.691406 26.753906 19.832031 26.894531 19.832031 27.074219 C 19.832031 27.25 19.691406 27.394531 19.511719 27.394531 Z M 19.511719 27.394531 " fill-opacity="1" fill-rule="nonzero"/><path fill="#4f334a" d="M 21.441406 27.394531 C 21.261719 27.394531 21.117188 27.25 21.117188 27.074219 C 21.117188 26.894531 21.257812 26.753906 21.433594 26.753906 L 21.441406 26.753906 C 21.617188 26.753906 21.761719 26.894531 21.761719 27.074219 C 21.761719 27.25 21.617188 27.394531 21.441406 27.394531 Z M 21.441406 27.394531 " fill-opacity="1" fill-rule="nonzero"/><path fill="#4f334a" d="M 23.367188 27.394531 C 23.191406 27.394531 23.042969 27.25 23.042969 27.074219 C 23.042969 26.894531 23.183594 26.753906 23.359375 26.753906 L 23.367188 26.753906 C 23.546875 26.753906 23.6875 26.894531 23.6875 27.074219 C 23.6875 27.25 23.546875 27.394531 23.367188 27.394531 Z M 23.367188 27.394531 " fill-opacity="1" fill-rule="nonzero"/><path fill="#4f334a" d="M 25.292969 27.394531 C 25.117188 27.394531 24.96875 27.25 24.96875 27.074219 C 24.96875 26.894531 25.109375 26.753906 25.289062 26.753906 L 25.292969 26.753906 C 25.472656 26.753906 25.617188 26.894531 25.617188 27.074219 C 25.617188 27.25 25.472656 27.394531 25.292969 27.394531 Z M 25.292969 27.394531 " fill-opacity="1" fill-rule="nonzero"/><path fill="#4f334a" d="M 27.222656 27.394531 C 27.042969 27.394531 26.898438 27.25 26.898438 27.074219 C 26.898438 26.894531 27.039062 26.753906 27.214844 26.753906 L 27.222656 26.753906 C 27.398438 26.753906 27.542969 26.894531 27.542969 27.074219 C 27.542969 27.25 27.398438 27.394531 27.222656 27.394531 Z M 27.222656 27.394531 " fill-opacity="1" fill-rule="nonzero"/><g clip-path="url(#5bfc3d5e64)"><path fill="#4f334a" d="M 2.46875 13.902344 C 2.292969 13.902344 2.148438 13.761719 2.148438 13.582031 C 2.148438 12.34375 3.15625 11.335938 4.394531 11.335938 C 4.574219 11.335938 4.71875 11.476562 4.71875 11.65625 C 4.71875 11.832031 4.574219 11.976562 4.394531 11.976562 C 3.511719 11.976562 2.789062 12.695312 2.789062 13.582031 C 2.789062 13.761719 2.644531 13.902344 2.46875 13.902344 Z M 2.46875 13.902344 " fill-opacity="1" fill-rule="nonzero"/></g><g clip-path="url(#8e7aef8451)"><path fill="#4f334a" d="M 42.941406 13.902344 C 42.765625 13.902344 42.621094 13.761719 42.621094 13.582031 C 42.621094 12.695312 41.898438 11.976562 41.015625 11.976562 C 40.835938 11.976562 40.691406 11.832031 40.691406 11.65625 C 40.691406 11.476562 40.835938 11.335938 41.015625 11.335938 C 42.253906 11.335938 43.261719 12.34375 43.261719 13.582031 C 43.261719 13.761719 43.121094 13.902344 42.941406 13.902344 Z M 42.941406 13.902344 " fill-opacity="1" fill-rule="nonzero"/></g><g clip-path="url(#ef5b4f96c6)"><path fill="#4f334a" d="M 41.015625 29.964844 C 40.835938 29.964844 40.691406 29.820312 40.691406 29.644531 C 40.691406 29.464844 40.835938 29.324219 41.015625 29.324219 C 41.898438 29.324219 42.621094 28.601562 42.621094 27.714844 C 42.621094 27.539062 42.765625 27.394531 42.941406 27.394531 C 43.121094 27.394531 43.261719 27.539062 43.261719 27.714844 C 43.261719 28.957031 42.253906 29.964844 41.015625 29.964844 Z M 41.015625 29.964844 " fill-opacity="1" fill-rule="nonzero"/></g><g clip-path="url(#a913a62502)"><path fill="#4f334a" d="M 4.394531 29.964844 C 3.15625 29.964844 2.148438 28.957031 2.148438 27.714844 C 2.148438 27.539062 2.292969 27.394531 2.46875 27.394531 C 2.644531 27.394531 2.789062 27.539062 2.789062 27.714844 C 2.789062 28.601562 3.511719 29.324219 4.394531 29.324219 C 4.574219 29.324219 4.71875 29.464844 4.71875 29.644531 C 4.71875 29.820312 4.574219 29.964844 4.394531 29.964844 Z M 4.394531 29.964844 " fill-opacity="1" fill-rule="nonzero"/></g><g clip-path="url(#580956eb79)"><path fill="#4f334a" d="M 4.394531 20.972656 C 4.21875 20.972656 4.074219 20.828125 4.074219 20.648438 C 4.074219 19.765625 3.355469 19.042969 2.46875 19.042969 C 2.292969 19.042969 2.148438 18.898438 2.148438 18.722656 C 2.148438 18.542969 2.292969 18.402344 2.46875 18.402344 C 3.707031 18.402344 4.71875 19.410156 4.71875 20.648438 C 4.71875 20.828125 4.574219 20.972656 4.394531 20.972656 Z M 4.394531 20.972656 " fill-opacity="1" fill-rule="nonzero"/></g><g clip-path="url(#1b5a69d03d)"><path fill="#4f334a" d="M 2.46875 22.898438 C 2.292969 22.898438 2.148438 22.753906 2.148438 22.578125 C 2.148438 22.398438 2.292969 22.253906 2.46875 22.253906 C 3.355469 22.253906 4.074219 21.535156 4.074219 20.648438 C 4.074219 20.472656 4.21875 20.328125 4.394531 20.328125 C 4.574219 20.328125 4.71875 20.472656 4.71875 20.648438 C 4.71875 21.890625 3.707031 22.898438 2.46875 22.898438 Z M 2.46875 22.898438 " fill-opacity="1" fill-rule="nonzero"/></g><path fill="#4f334a" d="M 41.015625 11.976562 L 4.394531 11.976562 C 4.21875 11.976562 4.074219 11.832031 4.074219 11.65625 C 4.074219 11.476562 4.21875 11.335938 4.394531 11.335938 L 41.015625 11.335938 C 41.191406 11.335938 41.335938 11.476562 41.335938 11.65625 C 41.335938 11.832031 41.191406 11.976562 41.015625 11.976562 Z M 41.015625 11.976562 " fill-opacity="1" fill-rule="nonzero"/><path fill="#4f334a" d="M 41.015625 29.964844 L 4.394531 29.964844 C 4.21875 29.964844 4.074219 29.820312 4.074219 29.644531 C 4.074219 29.464844 4.21875 29.324219 4.394531 29.324219 L 41.015625 29.324219 C 41.191406 29.324219 41.335938 29.464844 41.335938 29.644531 C 41.335938 29.820312 41.191406 29.964844 41.015625 29.964844 Z M 41.015625 29.964844 " fill-opacity="1" fill-rule="nonzero"/><g clip-path="url(#3318353250)"><path fill="#4f334a" d="M 2.46875 19.042969 C 2.292969 19.042969 2.148438 18.898438 2.148438 18.722656 L 2.148438 13.582031 C 2.148438 13.40625 2.292969 13.261719 2.46875 13.261719 C 2.644531 13.261719 2.789062 13.40625 2.789062 13.582031 L 2.789062 18.722656 C 2.789062 18.898438 2.644531 19.042969 2.46875 19.042969 Z M 2.46875 19.042969 " fill-opacity="1" fill-rule="nonzero"/></g><g clip-path="url(#2c40288882)"><path fill="#4f334a" d="M 2.46875 28.039062 C 2.292969 28.039062 2.148438 27.894531 2.148438 27.714844 L 2.148438 22.578125 C 2.148438 22.398438 2.292969 22.253906 2.46875 22.253906 C 2.644531 22.253906 2.789062 22.398438 2.789062 22.578125 L 2.789062 27.714844 C 2.789062 27.894531 2.644531 28.039062 2.46875 28.039062 Z M 2.46875 28.039062 " fill-opacity="1" fill-rule="nonzero"/></g><g clip-path="url(#2605ec9fb2)"><path fill="#4f334a" d="M 42.941406 22.898438 C 41.703125 22.898438 40.695312 21.886719 40.695312 20.648438 C 40.695312 20.472656 40.835938 20.328125 41.015625 20.328125 C 41.191406 20.328125 41.335938 20.472656 41.335938 20.648438 C 41.335938 21.535156 42.054688 22.253906 42.941406 22.253906 C 43.121094 22.253906 43.261719 22.398438 43.261719 22.578125 C 43.261719 22.753906 43.121094 22.898438 42.941406 22.898438 Z M 42.941406 22.898438 " fill-opacity="1" fill-rule="nonzero"/></g><g clip-path="url(#c4c8e67e4b)"><path fill="#4f334a" d="M 41.015625 20.972656 C 40.835938 20.972656 40.695312 20.828125 40.695312 20.648438 C 40.695312 19.410156 41.703125 18.402344 42.941406 18.402344 C 43.121094 18.402344 43.261719 18.542969 43.261719 18.722656 C 43.261719 18.898438 43.121094 19.042969 42.941406 19.042969 C 42.054688 19.042969 41.335938 19.765625 41.335938 20.648438 C 41.335938 20.828125 41.191406 20.972656 41.015625 20.972656 Z M 41.015625 20.972656 " fill-opacity="1" fill-rule="nonzero"/></g><g clip-path="url(#b52fd52508)"><path fill="#4f334a" d="M 42.941406 28.039062 C 42.765625 28.039062 42.621094 27.894531 42.621094 27.714844 L 42.621094 22.578125 C 42.621094 22.398438 42.765625 22.253906 42.941406 22.253906 C 43.121094 22.253906 43.261719 22.398438 43.261719 22.578125 L 43.261719 27.714844 C 43.261719 27.894531 43.121094 28.039062 42.941406 28.039062 Z M 42.941406 28.039062 " fill-opacity="1" fill-rule="nonzero"/></g><g clip-path="url(#12885d0239)"><path fill="#4f334a" d="M 42.941406 19.042969 C 42.765625 19.042969 42.621094 18.898438 42.621094 18.722656 L 42.621094 13.582031 C 42.621094 13.40625 42.765625 13.261719 42.941406 13.261719 C 43.121094 13.261719 43.261719 13.40625 43.261719 13.582031 L 43.261719 18.722656 C 43.261719 18.898438 43.121094 19.042969 42.941406 19.042969 Z M 42.941406 19.042969 " fill-opacity="1" fill-rule="nonzero"/></g><path fill="#4f334a" d="M 34.589844 14.226562 C 34.414062 14.226562 34.269531 14.082031 34.269531 13.902344 L 34.269531 12.941406 C 34.269531 12.761719 34.414062 12.617188 34.589844 12.617188 C 34.769531 12.617188 34.910156 12.761719 34.910156 12.941406 L 34.910156 13.902344 C 34.910156 14.082031 34.769531 14.226562 34.589844 14.226562 Z M 34.589844 14.226562 " fill-opacity="1" fill-rule="nonzero"/><path fill="#4f334a" d="M 34.589844 25.789062 C 34.414062 25.789062 34.269531 25.644531 34.269531 25.46875 L 34.269531 23.539062 C 34.269531 23.363281 34.414062 23.21875 34.589844 23.21875 C 34.769531 23.21875 34.910156 23.363281 34.910156 23.539062 L 34.910156 25.46875 C 34.910156 25.644531 34.769531 25.789062 34.589844 25.789062 Z M 34.589844 21.933594 C 34.414062 21.933594 34.269531 21.789062 34.269531 21.613281 L 34.269531 19.6875 C 34.269531 19.507812 34.414062 19.363281 34.589844 19.363281 C 34.769531 19.363281 34.910156 19.507812 34.910156 19.6875 L 34.910156 21.613281 C 34.910156 21.789062 34.769531 21.933594 34.589844 21.933594 Z M 34.589844 18.078125 C 34.414062 18.078125 34.269531 17.9375 34.269531 17.757812 L 34.269531 15.832031 C 34.269531 15.652344 34.414062 15.511719 34.589844 15.511719 C 34.769531 15.511719 34.910156 15.652344 34.910156 15.832031 L 34.910156 17.757812 C 34.910156 17.9375 34.769531 18.078125 34.589844 18.078125 Z M 34.589844 18.078125 " fill-opacity="1" fill-rule="nonzero"/><path fill="#4f334a" d="M 34.589844 28.679688 C 34.414062 28.679688 34.269531 28.535156 34.269531 28.359375 L 34.269531 27.394531 C 34.269531 27.21875 34.414062 27.074219 34.589844 27.074219 C 34.769531 27.074219 34.910156 27.21875 34.910156 27.394531 L 34.910156 28.359375 C 34.910156 28.535156 34.769531 28.679688 34.589844 28.679688 Z M 34.589844 28.679688 " fill-opacity="1" fill-rule="nonzero"/><path fill="#4f334a" d="M 37.160156 28.039062 C 36.984375 28.039062 36.839844 27.894531 36.839844 27.714844 L 36.839844 13.582031 C 36.839844 13.40625 36.984375 13.261719 37.160156 13.261719 C 37.339844 13.261719 37.480469 13.40625 37.480469 13.582031 L 37.480469 27.714844 C 37.480469 27.894531 37.339844 28.039062 37.160156 28.039062 Z M 37.160156 28.039062 " fill-opacity="1" fill-rule="nonzero"/><path fill="#4f334a" d="M 38.445312 24.824219 C 38.269531 24.824219 38.125 24.683594 38.125 24.503906 L 38.125 16.796875 C 38.125 16.617188 38.269531 16.472656 38.445312 16.472656 C 38.621094 16.472656 38.765625 16.617188 38.765625 16.796875 L 38.765625 24.503906 C 38.765625 24.683594 38.621094 24.824219 38.445312 24.824219 Z M 38.445312 24.824219 " fill-opacity="1" fill-rule="nonzero"/><path fill="#4f334a" d="M 11.464844 19.6875 C 11.285156 19.6875 11.140625 19.542969 11.140625 19.363281 L 11.140625 15.511719 C 11.140625 15.332031 11.285156 15.1875 11.464844 15.1875 C 11.640625 15.1875 11.785156 15.332031 11.785156 15.511719 L 11.785156 19.363281 C 11.785156 19.542969 11.640625 19.6875 11.464844 19.6875 Z M 11.464844 19.6875 " fill-opacity="1" fill-rule="nonzero"/><path fill="#4f334a" d="M 12.746094 15.832031 L 10.179688 15.832031 C 10 15.832031 9.855469 15.6875 9.855469 15.511719 C 9.855469 15.332031 10 15.1875 10.179688 15.1875 L 12.746094 15.1875 C 12.925781 15.1875 13.070312 15.332031 13.070312 15.511719 C 13.070312 15.6875 12.925781 15.832031 12.746094 15.832031 Z M 12.746094 15.832031 " fill-opacity="1" fill-rule="nonzero"/><path fill="#4f334a" d="M 27.203125 19.6875 C 27.023438 19.6875 26.882812 19.542969 26.882812 19.363281 L 26.882812 15.511719 C 26.882812 15.332031 27.023438 15.1875 27.203125 15.1875 C 27.378906 15.1875 27.523438 15.332031 27.523438 15.511719 L 27.523438 19.363281 C 27.523438 19.542969 27.378906 19.6875 27.203125 19.6875 Z M 27.203125 19.6875 " fill-opacity="1" fill-rule="nonzero"/><path fill="#4f334a" d="M 28.488281 15.832031 L 25.917969 15.832031 C 25.738281 15.832031 25.597656 15.6875 25.597656 15.511719 C 25.597656 15.332031 25.738281 15.1875 25.917969 15.1875 L 28.488281 15.1875 C 28.664062 15.1875 28.808594 15.332031 28.808594 15.511719 C 28.808594 15.6875 28.664062 15.832031 28.488281 15.832031 Z M 28.488281 15.832031 " fill-opacity="1" fill-rule="nonzero"/><path fill="#4f334a" d="M 14.03125 19.6875 C 13.855469 19.6875 13.710938 19.542969 13.710938 19.363281 L 13.710938 15.511719 C 13.710938 15.332031 13.855469 15.1875 14.03125 15.1875 C 14.210938 15.1875 14.355469 15.332031 14.355469 15.511719 L 14.355469 19.363281 C 14.355469 19.542969 14.210938 19.6875 14.03125 19.6875 Z M 14.03125 19.6875 " fill-opacity="1" fill-rule="nonzero"/><path fill="#4f334a" d="M 19.492188 19.6875 C 19.316406 19.6875 19.171875 19.542969 19.171875 19.363281 L 19.171875 15.511719 C 19.171875 15.332031 19.316406 15.1875 19.492188 15.1875 C 19.671875 15.1875 19.816406 15.332031 19.816406 15.511719 L 19.816406 19.363281 C 19.816406 19.542969 19.671875 19.6875 19.492188 19.6875 Z M 19.492188 19.6875 " fill-opacity="1" fill-rule="nonzero"/><path fill="#4f334a" d="M 19.492188 18.402344 C 19.425781 18.402344 19.359375 18.378906 19.300781 18.335938 C 19.160156 18.230469 19.128906 18.027344 19.238281 17.886719 L 21.164062 15.316406 C 21.269531 15.175781 21.472656 15.148438 21.613281 15.253906 C 21.753906 15.359375 21.785156 15.5625 21.675781 15.703125 L 19.75 18.273438 C 19.6875 18.355469 19.589844 18.402344 19.492188 18.402344 Z M 19.492188 18.402344 " fill-opacity="1" fill-rule="nonzero"/><path fill="#4f334a" d="M 21.421875 19.6875 C 21.3125 19.6875 21.207031 19.628906 21.144531 19.53125 L 19.859375 17.386719 C 19.769531 17.234375 19.820312 17.039062 19.96875 16.949219 C 20.121094 16.855469 20.320312 16.90625 20.410156 17.058594 L 21.695312 19.199219 C 21.789062 19.351562 21.738281 19.546875 21.585938 19.640625 C 21.535156 19.671875 21.476562 19.6875 21.421875 19.6875 Z M 21.421875 19.6875 " fill-opacity="1" fill-rule="nonzero"/><path fill="#4f334a" d="M 17.886719 16.796875 C 17.710938 16.796875 17.566406 16.652344 17.566406 16.472656 C 17.566406 16.121094 17.277344 15.832031 16.921875 15.832031 C 16.570312 15.832031 16.28125 16.121094 16.28125 16.472656 C 16.28125 16.652344 16.136719 16.796875 15.960938 16.796875 C 15.78125 16.796875 15.640625 16.652344 15.640625 16.472656 C 15.640625 15.765625 16.214844 15.1875 16.921875 15.1875 C 17.632812 15.1875 18.207031 15.765625 18.207031 16.472656 C 18.207031 16.652344 18.066406 16.796875 17.886719 16.796875 Z M 17.886719 16.796875 " fill-opacity="1" fill-rule="nonzero"/><path fill="#4f334a" d="M 16.921875 19.6875 C 16.214844 19.6875 15.640625 19.109375 15.640625 18.402344 C 15.640625 18.222656 15.78125 18.078125 15.960938 18.078125 C 16.136719 18.078125 16.28125 18.222656 16.28125 18.402344 C 16.28125 18.753906 16.570312 19.042969 16.921875 19.042969 C 17.277344 19.042969 17.566406 18.753906 17.566406 18.402344 C 17.566406 18.222656 17.710938 18.078125 17.886719 18.078125 C 18.066406 18.078125 18.207031 18.222656 18.207031 18.402344 C 18.207031 19.109375 17.632812 19.6875 16.921875 19.6875 Z M 16.921875 19.6875 " fill-opacity="1" fill-rule="nonzero"/><path fill="#4f334a" d="M 15.960938 18.722656 C 15.78125 18.722656 15.640625 18.578125 15.640625 18.402344 L 15.640625 16.472656 C 15.640625 16.296875 15.78125 16.152344 15.960938 16.152344 C 16.136719 16.152344 16.28125 16.296875 16.28125 16.472656 L 16.28125 18.402344 C 16.28125 18.578125 16.136719 18.722656 15.960938 18.722656 Z M 15.960938 18.722656 " fill-opacity="1" fill-rule="nonzero"/><path fill="#4f334a" d="M 23.027344 19.6875 C 22.847656 19.6875 22.707031 19.542969 22.707031 19.363281 L 22.707031 15.511719 C 22.707031 15.332031 22.847656 15.1875 23.027344 15.1875 C 23.203125 15.1875 23.347656 15.332031 23.347656 15.511719 L 23.347656 19.363281 C 23.347656 19.542969 23.203125 19.6875 23.027344 19.6875 Z M 23.027344 19.6875 " fill-opacity="1" fill-rule="nonzero"/><path fill="#4f334a" d="M 24.953125 19.6875 L 23.027344 19.6875 C 22.847656 19.6875 22.707031 19.542969 22.707031 19.363281 C 22.707031 19.1875 22.847656 19.042969 23.027344 19.042969 L 24.953125 19.042969 C 25.132812 19.042969 25.273438 19.1875 25.273438 19.363281 C 25.273438 19.542969 25.132812 19.6875 24.953125 19.6875 Z M 24.953125 19.6875 " fill-opacity="1" fill-rule="nonzero"/><path fill="#4f334a" d="M 24.953125 15.832031 L 23.027344 15.832031 C 22.847656 15.832031 22.707031 15.6875 22.707031 15.511719 C 22.707031 15.332031 22.847656 15.1875 23.027344 15.1875 L 24.953125 15.1875 C 25.132812 15.1875 25.273438 15.332031 25.273438 15.511719 C 25.273438 15.6875 25.132812 15.832031 24.953125 15.832031 Z M 24.953125 15.832031 " fill-opacity="1" fill-rule="nonzero"/><path fill="#4f334a" d="M 24.3125 17.757812 L 23.027344 17.757812 C 22.847656 17.757812 22.707031 17.613281 22.707031 17.4375 C 22.707031 17.261719 22.847656 17.117188 23.027344 17.117188 L 24.3125 17.117188 C 24.488281 17.117188 24.632812 17.261719 24.632812 17.4375 C 24.632812 17.613281 24.488281 17.757812 24.3125 17.757812 Z M 24.3125 17.757812 " fill-opacity="1" fill-rule="nonzero"/><path fill="#4f334a" d="M 27.523438 23.539062 L 11.464844 23.539062 C 11.285156 23.539062 11.140625 23.398438 11.140625 23.21875 C 11.140625 23.042969 11.285156 22.898438 11.464844 22.898438 L 27.523438 22.898438 C 27.703125 22.898438 27.84375 23.042969 27.84375 23.21875 C 27.84375 23.398438 27.703125 23.539062 27.523438 23.539062 Z M 27.523438 23.539062 " fill-opacity="1" fill-rule="nonzero"/><path fill="#4f334a" d="M 23.027344 24.824219 L 15.960938 24.824219 C 15.78125 24.824219 15.640625 24.683594 15.640625 24.503906 C 15.640625 24.328125 15.78125 24.183594 15.960938 24.183594 L 23.027344 24.183594 C 23.203125 24.183594 23.347656 24.328125 23.347656 24.503906 C 23.347656 24.683594 23.203125 24.824219 23.027344 24.824219 Z M 23.027344 24.824219 " fill-opacity="1" fill-rule="nonzero"/><path fill="#4f334a" d="M 30.09375 20.328125 C 29.917969 20.328125 29.773438 20.183594 29.773438 20.007812 L 29.773438 18.722656 C 29.773438 18.542969 29.917969 18.402344 30.09375 18.402344 C 30.269531 18.402344 30.414062 18.542969 30.414062 18.722656 L 30.414062 20.007812 C 30.414062 20.183594 30.269531 20.328125 30.09375 20.328125 Z M 30.09375 20.328125 " fill-opacity="1" fill-rule="nonzero"/><path fill="#4f334a" d="M 30.734375 19.6875 L 29.449219 19.6875 C 29.273438 19.6875 29.128906 19.542969 29.128906 19.363281 C 29.128906 19.1875 29.273438 19.042969 29.449219 19.042969 L 30.734375 19.042969 C 30.914062 19.042969 31.058594 19.1875 31.058594 19.363281 C 31.058594 19.542969 30.914062 19.6875 30.734375 19.6875 Z M 30.734375 19.6875 " fill-opacity="1" fill-rule="nonzero"/><path fill="#4f334a" d="M 7.609375 17.117188 C 7.429688 17.117188 7.289062 16.972656 7.289062 16.796875 L 7.289062 15.511719 C 7.289062 15.332031 7.429688 15.1875 7.609375 15.1875 C 7.785156 15.1875 7.929688 15.332031 7.929688 15.511719 L 7.929688 16.796875 C 7.929688 16.972656 7.785156 17.117188 7.609375 17.117188 Z M 7.609375 17.117188 " fill-opacity="1" fill-rule="nonzero"/><path fill="#4f334a" d="M 8.25 16.472656 L 6.964844 16.472656 C 6.789062 16.472656 6.644531 16.328125 6.644531 16.152344 C 6.644531 15.976562 6.789062 15.832031 6.964844 15.832031 L 8.25 15.832031 C 8.429688 15.832031 8.570312 15.976562 8.570312 16.152344 C 8.570312 16.328125 8.429688 16.472656 8.25 16.472656 Z M 8.25 16.472656 " fill-opacity="1" fill-rule="nonzero"/><path fill="#4f334a" d="M 26.871094 7.980469 C 26.691406 7.980469 26.546875 7.839844 26.546875 7.660156 C 26.546875 7.484375 26.6875 7.339844 26.863281 7.339844 L 26.871094 7.339844 C 27.046875 7.339844 27.191406 7.484375 27.191406 7.660156 C 27.191406 7.839844 27.046875 7.980469 26.871094 7.980469 Z M 26.871094 7.980469 " fill-opacity="1" fill-rule="nonzero"/><path fill="#4f334a" d="M 38.382812 2.171875 C 38.253906 2.171875 38.132812 2.09375 38.082031 1.964844 C 37.765625 1.140625 36.835938 0.726562 36.007812 1.042969 C 35.839844 1.105469 35.65625 1.023438 35.589844 0.859375 C 35.527344 0.691406 35.609375 0.507812 35.777344 0.445312 C 36.933594 0 38.238281 0.578125 38.683594 1.734375 C 38.746094 1.902344 38.664062 2.085938 38.496094 2.152344 C 38.460938 2.164062 38.421875 2.171875 38.382812 2.171875 Z M 38.382812 2.171875 " fill-opacity="1" fill-rule="nonzero"/><path fill="#4f334a" d="M 10.855469 10.691406 C 10.726562 10.691406 10.605469 10.613281 10.554688 10.484375 C 10.492188 10.320312 10.574219 10.132812 10.738281 10.070312 L 35.777344 0.441406 C 35.941406 0.378906 36.128906 0.460938 36.191406 0.628906 C 36.253906 0.792969 36.171875 0.980469 36.007812 1.042969 L 10.96875 10.671875 C 10.933594 10.683594 10.894531 10.691406 10.855469 10.691406 Z M 10.855469 10.691406 " fill-opacity="1" fill-rule="nonzero"/><path fill="#4f334a" d="M 40.921875 10.695312 C 40.015625 10.695312 39.164062 10.144531 38.820312 9.253906 C 38.757812 9.085938 38.839844 8.902344 39.003906 8.839844 C 39.167969 8.773438 39.355469 8.855469 39.417969 9.023438 C 39.738281 9.847656 40.667969 10.261719 41.496094 9.945312 C 41.660156 9.882812 41.847656 9.964844 41.910156 10.128906 C 41.972656 10.296875 41.890625 10.480469 41.726562 10.542969 C 41.460938 10.644531 41.1875 10.695312 40.921875 10.695312 Z M 40.921875 10.695312 " fill-opacity="1" fill-rule="nonzero"/><path fill="#4f334a" d="M 39.121094 9.460938 C 38.992188 9.460938 38.871094 9.378906 38.820312 9.253906 C 38.375 8.09375 38.953125 6.792969 40.113281 6.347656 C 40.273438 6.285156 40.464844 6.367188 40.527344 6.53125 C 40.589844 6.699219 40.507812 6.882812 40.34375 6.945312 C 39.515625 7.265625 39.101562 8.195312 39.417969 9.023438 C 39.484375 9.1875 39.398438 9.375 39.234375 9.4375 C 39.195312 9.453125 39.15625 9.460938 39.121094 9.460938 Z M 39.121094 9.460938 " fill-opacity="1" fill-rule="nonzero"/><path fill="#4f334a" d="M 40.226562 6.96875 C 40.097656 6.96875 39.976562 6.890625 39.925781 6.761719 L 38.082031 1.964844 C 38.019531 1.800781 38.101562 1.613281 38.265625 1.550781 C 38.433594 1.488281 38.617188 1.570312 38.683594 1.734375 L 40.527344 6.53125 C 40.589844 6.699219 40.507812 6.882812 40.34375 6.945312 C 40.304688 6.960938 40.265625 6.96875 40.226562 6.96875 Z M 40.226562 6.96875 " fill-opacity="1" fill-rule="nonzero"/><path fill="#4f334a" d="M 30.703125 5.46875 C 30.574219 5.46875 30.453125 5.390625 30.402344 5.261719 L 30.054688 4.363281 C 29.992188 4.199219 30.074219 4.011719 30.242188 3.949219 C 30.40625 3.882812 30.59375 3.96875 30.65625 4.132812 L 31.003906 5.03125 C 31.066406 5.199219 30.984375 5.382812 30.816406 5.449219 C 30.78125 5.460938 30.742188 5.46875 30.703125 5.46875 Z M 30.703125 5.46875 " fill-opacity="1" fill-rule="nonzero"/><path fill="#4f334a" d="M 31.8125 8.351562 C 31.683594 8.351562 31.558594 8.273438 31.511719 8.144531 L 30.957031 6.703125 C 30.894531 6.539062 30.976562 6.351562 31.140625 6.289062 C 31.308594 6.226562 31.492188 6.308594 31.558594 6.472656 L 32.109375 7.914062 C 32.175781 8.082031 32.09375 8.265625 31.925781 8.332031 C 31.890625 8.34375 31.851562 8.351562 31.8125 8.351562 Z M 31.8125 8.351562 " fill-opacity="1" fill-rule="nonzero"/><path fill="#4f334a" d="M 32.710938 10.691406 C 32.582031 10.691406 32.460938 10.613281 32.410156 10.488281 L 32.066406 9.589844 C 32.003906 9.421875 32.085938 9.238281 32.25 9.171875 C 32.417969 9.109375 32.601562 9.191406 32.664062 9.355469 L 33.011719 10.257812 C 33.074219 10.421875 32.992188 10.609375 32.828125 10.671875 C 32.789062 10.6875 32.75 10.691406 32.710938 10.691406 Z M 32.710938 10.691406 " fill-opacity="1" fill-rule="nonzero"/><path fill="#4f334a" d="M 35.464844 10.691406 C 35.335938 10.691406 35.214844 10.613281 35.164062 10.484375 L 32.6875 4.042969 C 32.621094 3.875 32.703125 3.6875 32.871094 3.625 C 33.035156 3.5625 33.222656 3.644531 33.285156 3.808594 L 35.765625 10.253906 C 35.828125 10.417969 35.746094 10.605469 35.578125 10.667969 C 35.542969 10.683594 35.503906 10.691406 35.464844 10.691406 Z M 35.464844 10.691406 " fill-opacity="1" fill-rule="nonzero"/><path fill="#4f334a" d="M 36.839844 10.691406 C 36.710938 10.691406 36.589844 10.613281 36.542969 10.484375 L 35.039062 6.578125 C 34.972656 6.410156 35.058594 6.226562 35.222656 6.164062 C 35.386719 6.097656 35.574219 6.179688 35.636719 6.347656 L 37.140625 10.253906 C 37.207031 10.421875 37.121094 10.605469 36.957031 10.671875 C 36.917969 10.683594 36.878906 10.691406 36.839844 10.691406 Z M 36.839844 10.691406 " fill-opacity="1" fill-rule="nonzero"/><path fill="#4f334a" d="M 24.792969 10.6875 C 24.664062 10.6875 24.542969 10.609375 24.496094 10.484375 L 24.082031 9.414062 C 24.019531 9.246094 24.101562 9.0625 24.269531 8.996094 C 24.433594 8.933594 24.621094 9.015625 24.683594 9.183594 L 25.09375 10.253906 C 25.160156 10.417969 25.074219 10.605469 24.910156 10.667969 C 24.871094 10.683594 24.832031 10.6875 24.792969 10.6875 Z M 24.792969 10.6875 " fill-opacity="1" fill-rule="nonzero"/><path fill="#4f334a" d="M 23.183594 10.082031 C 23.054688 10.082031 22.933594 10.003906 22.882812 9.875 C 22.820312 9.710938 22.902344 9.523438 23.070312 9.460938 L 25.46875 8.539062 C 25.632812 8.472656 25.820312 8.554688 25.882812 8.722656 C 25.945312 8.886719 25.863281 9.074219 25.699219 9.136719 L 23.300781 10.058594 C 23.261719 10.074219 23.222656 10.082031 23.183594 10.082031 Z M 23.183594 10.082031 " fill-opacity="1" fill-rule="nonzero"/><path fill="#4f334a" d="M 21.59375 10.691406 C 21.464844 10.691406 21.34375 10.613281 21.292969 10.484375 C 21.230469 10.320312 21.3125 10.132812 21.480469 10.070312 L 22.167969 9.804688 C 22.335938 9.742188 22.519531 9.824219 22.585938 9.988281 C 22.648438 10.15625 22.566406 10.339844 22.398438 10.40625 L 21.710938 10.671875 C 21.671875 10.683594 21.632812 10.691406 21.59375 10.691406 Z M 21.59375 10.691406 " fill-opacity="1" fill-rule="nonzero"/><g fill="#4f334a" fill-opacity="1"><g transform="translate(58.192564, 25.000266)"><g><path d="M 5.453125 0.1875 C 4.484375 0.1875 3.738281 -0.078125 3.21875 -0.609375 C 2.707031 -1.148438 2.453125 -1.925781 2.453125 -2.9375 L 2.453125 -10.421875 L 0.96875 -10.421875 C 0.84375 -10.421875 0.734375 -10.457031 0.640625 -10.53125 C 0.554688 -10.601562 0.515625 -10.722656 0.515625 -10.890625 L 0.515625 -11.734375 L 2.515625 -12 L 3.015625 -15.765625 C 3.035156 -15.890625 3.085938 -15.988281 3.171875 -16.0625 C 3.253906 -16.132812 3.367188 -16.171875 3.515625 -16.171875 L 4.59375 -16.171875 L 4.59375 -11.96875 L 8.125 -11.96875 L 8.125 -10.421875 L 4.59375 -10.421875 L 4.59375 -3.09375 C 4.59375 -2.570312 4.71875 -2.1875 4.96875 -1.9375 C 5.21875 -1.6875 5.539062 -1.5625 5.9375 -1.5625 C 6.15625 -1.5625 6.347656 -1.59375 6.515625 -1.65625 C 6.679688 -1.71875 6.820312 -1.785156 6.9375 -1.859375 C 7.0625 -1.929688 7.164062 -1.992188 7.25 -2.046875 C 7.332031 -2.109375 7.40625 -2.140625 7.46875 -2.140625 C 7.582031 -2.140625 7.6875 -2.070312 7.78125 -1.9375 L 8.40625 -0.921875 C 8.03125 -0.566406 7.582031 -0.289062 7.0625 -0.09375 C 6.539062 0.09375 6.003906 0.1875 5.453125 0.1875 Z M 5.453125 0.1875 "/></g></g></g><g fill="#4f334a" fill-opacity="1"><g transform="translate(66.835803, 25.000266)"><g><path d="M 3.96875 -12.21875 L 3.96875 0 L 1.8125 0 L 1.8125 -12.21875 Z M 4.421875 -16.046875 C 4.421875 -15.835938 4.378906 -15.640625 4.296875 -15.453125 C 4.210938 -15.273438 4.097656 -15.113281 3.953125 -14.96875 C 3.816406 -14.832031 3.65625 -14.722656 3.46875 -14.640625 C 3.28125 -14.566406 3.082031 -14.53125 2.875 -14.53125 C 2.664062 -14.53125 2.46875 -14.566406 2.28125 -14.640625 C 2.101562 -14.722656 1.945312 -14.832031 1.8125 -14.96875 C 1.675781 -15.113281 1.566406 -15.273438 1.484375 -15.453125 C 1.398438 -15.640625 1.359375 -15.835938 1.359375 -16.046875 C 1.359375 -16.253906 1.398438 -16.453125 1.484375 -16.640625 C 1.566406 -16.828125 1.675781 -16.988281 1.8125 -17.125 C 1.945312 -17.269531 2.101562 -17.382812 2.28125 -17.46875 C 2.46875 -17.550781 2.664062 -17.59375 2.875 -17.59375 C 3.082031 -17.59375 3.28125 -17.550781 3.46875 -17.46875 C 3.65625 -17.382812 3.816406 -17.269531 3.953125 -17.125 C 4.097656 -16.988281 4.210938 -16.828125 4.296875 -16.640625 C 4.378906 -16.453125 4.421875 -16.253906 4.421875 -16.046875 Z M 4.421875 -16.046875 "/></g></g></g><g fill="#4f334a" fill-opacity="1"><g transform="translate(72.622078, 25.000266)"><g><path d="M 10.203125 -10.046875 C 10.140625 -9.953125 10.070312 -9.878906 10 -9.828125 C 9.9375 -9.785156 9.847656 -9.765625 9.734375 -9.765625 C 9.617188 -9.765625 9.488281 -9.8125 9.34375 -9.90625 C 9.195312 -10.007812 9.015625 -10.117188 8.796875 -10.234375 C 8.585938 -10.359375 8.328125 -10.472656 8.015625 -10.578125 C 7.710938 -10.679688 7.335938 -10.734375 6.890625 -10.734375 C 6.285156 -10.734375 5.753906 -10.625 5.296875 -10.40625 C 4.835938 -10.195312 4.453125 -9.890625 4.140625 -9.484375 C 3.828125 -9.085938 3.59375 -8.601562 3.4375 -8.03125 C 3.28125 -7.457031 3.203125 -6.816406 3.203125 -6.109375 C 3.203125 -5.367188 3.285156 -4.710938 3.453125 -4.140625 C 3.628906 -3.566406 3.867188 -3.082031 4.171875 -2.6875 C 4.484375 -2.300781 4.859375 -2.003906 5.296875 -1.796875 C 5.734375 -1.597656 6.226562 -1.5 6.78125 -1.5 C 7.300781 -1.5 7.726562 -1.5625 8.0625 -1.6875 C 8.40625 -1.8125 8.6875 -1.945312 8.90625 -2.09375 C 9.125 -2.25 9.304688 -2.390625 9.453125 -2.515625 C 9.609375 -2.640625 9.753906 -2.703125 9.890625 -2.703125 C 10.066406 -2.703125 10.207031 -2.632812 10.3125 -2.5 L 10.90625 -1.71875 C 10.644531 -1.382812 10.34375 -1.097656 10 -0.859375 C 9.664062 -0.628906 9.300781 -0.4375 8.90625 -0.28125 C 8.519531 -0.125 8.113281 -0.0078125 7.6875 0.0625 C 7.257812 0.132812 6.828125 0.171875 6.390625 0.171875 C 5.628906 0.171875 4.921875 0.03125 4.265625 -0.25 C 3.609375 -0.53125 3.035156 -0.9375 2.546875 -1.46875 C 2.066406 -2.007812 1.691406 -2.664062 1.421875 -3.4375 C 1.148438 -4.21875 1.015625 -5.109375 1.015625 -6.109375 C 1.015625 -7.015625 1.140625 -7.851562 1.390625 -8.625 C 1.640625 -9.394531 2.007812 -10.0625 2.5 -10.625 C 2.988281 -11.1875 3.585938 -11.625 4.296875 -11.9375 C 5.003906 -12.25 5.820312 -12.40625 6.75 -12.40625 C 7.613281 -12.40625 8.367188 -12.265625 9.015625 -11.984375 C 9.671875 -11.710938 10.253906 -11.320312 10.765625 -10.8125 Z M 10.203125 -10.046875 "/></g></g></g><g fill="#4f334a" fill-opacity="1"><g transform="translate(84.134346, 25.000266)"><g><path d="M 3.859375 -17.75 L 3.859375 -7.3125 L 4.40625 -7.3125 C 4.570312 -7.3125 4.707031 -7.332031 4.8125 -7.375 C 4.925781 -7.414062 5.039062 -7.503906 5.15625 -7.640625 L 9.015625 -11.78125 C 9.128906 -11.914062 9.25 -12.019531 9.375 -12.09375 C 9.5 -12.175781 9.664062 -12.21875 9.875 -12.21875 L 11.8125 -12.21875 L 7.3125 -7.421875 C 7.09375 -7.148438 6.863281 -6.9375 6.625 -6.78125 C 6.757812 -6.6875 6.882812 -6.578125 7 -6.453125 C 7.125 -6.328125 7.238281 -6.1875 7.34375 -6.03125 L 12.109375 0 L 10.203125 0 C 10.015625 0 9.851562 -0.03125 9.71875 -0.09375 C 9.582031 -0.15625 9.46875 -0.265625 9.375 -0.421875 L 5.359375 -5.421875 C 5.242188 -5.585938 5.125 -5.695312 5 -5.75 C 4.882812 -5.800781 4.707031 -5.828125 4.46875 -5.828125 L 3.859375 -5.828125 L 3.859375 0 L 1.703125 0 L 1.703125 -17.75 Z M 3.859375 -17.75 "/></g></g></g><g fill="#4f334a" fill-opacity="1"><g transform="translate(96.381945, 25.000266)"><g><path d="M 9.875 -7.4375 C 9.875 -7.9375 9.800781 -8.390625 9.65625 -8.796875 C 9.519531 -9.210938 9.316406 -9.570312 9.046875 -9.875 C 8.773438 -10.175781 8.445312 -10.410156 8.0625 -10.578125 C 7.675781 -10.742188 7.238281 -10.828125 6.75 -10.828125 C 5.71875 -10.828125 4.898438 -10.523438 4.296875 -9.921875 C 3.703125 -9.328125 3.332031 -8.5 3.1875 -7.4375 Z M 11.609375 -1.71875 C 11.335938 -1.394531 11.019531 -1.113281 10.65625 -0.875 C 10.289062 -0.632812 9.894531 -0.4375 9.46875 -0.28125 C 9.050781 -0.132812 8.613281 -0.0234375 8.15625 0.046875 C 7.707031 0.128906 7.265625 0.171875 6.828125 0.171875 C 5.984375 0.171875 5.203125 0.03125 4.484375 -0.25 C 3.773438 -0.539062 3.160156 -0.960938 2.640625 -1.515625 C 2.128906 -2.066406 1.726562 -2.75 1.4375 -3.5625 C 1.144531 -4.375 1 -5.304688 1 -6.359375 C 1 -7.203125 1.128906 -7.992188 1.390625 -8.734375 C 1.648438 -9.472656 2.023438 -10.113281 2.515625 -10.65625 C 3.003906 -11.195312 3.601562 -11.625 4.3125 -11.9375 C 5.019531 -12.25 5.816406 -12.40625 6.703125 -12.40625 C 7.429688 -12.40625 8.109375 -12.28125 8.734375 -12.03125 C 9.359375 -11.789062 9.894531 -11.4375 10.34375 -10.96875 C 10.800781 -10.507812 11.15625 -9.941406 11.40625 -9.265625 C 11.664062 -8.585938 11.796875 -7.8125 11.796875 -6.9375 C 11.796875 -6.601562 11.757812 -6.378906 11.6875 -6.265625 C 11.613281 -6.148438 11.476562 -6.09375 11.28125 -6.09375 L 3.125 -6.09375 C 3.144531 -5.320312 3.25 -4.648438 3.4375 -4.078125 C 3.625 -3.515625 3.882812 -3.039062 4.21875 -2.65625 C 4.5625 -2.269531 4.96875 -1.984375 5.4375 -1.796875 C 5.90625 -1.609375 6.425781 -1.515625 7 -1.515625 C 7.539062 -1.515625 8.003906 -1.578125 8.390625 -1.703125 C 8.785156 -1.828125 9.125 -1.960938 9.40625 -2.109375 C 9.6875 -2.253906 9.921875 -2.390625 10.109375 -2.515625 C 10.296875 -2.640625 10.457031 -2.703125 10.59375 -2.703125 C 10.769531 -2.703125 10.90625 -2.632812 11 -2.5 Z M 11.609375 -1.71875 "/></g></g></g><g fill="#4f334a" fill-opacity="1"><g transform="translate(109.111742, 25.000266)"><g><path d="M 5.453125 0.1875 C 4.484375 0.1875 3.738281 -0.078125 3.21875 -0.609375 C 2.707031 -1.148438 2.453125 -1.925781 2.453125 -2.9375 L 2.453125 -10.421875 L 0.96875 -10.421875 C 0.84375 -10.421875 0.734375 -10.457031 0.640625 -10.53125 C 0.554688 -10.601562 0.515625 -10.722656 0.515625 -10.890625 L 0.515625 -11.734375 L 2.515625 -12 L 3.015625 -15.765625 C 3.035156 -15.890625 3.085938 -15.988281 3.171875 -16.0625 C 3.253906 -16.132812 3.367188 -16.171875 3.515625 -16.171875 L 4.59375 -16.171875 L 4.59375 -11.96875 L 8.125 -11.96875 L 8.125 -10.421875 L 4.59375 -10.421875 L 4.59375 -3.09375 C 4.59375 -2.570312 4.71875 -2.1875 4.96875 -1.9375 C 5.21875 -1.6875 5.539062 -1.5625 5.9375 -1.5625 C 6.15625 -1.5625 6.347656 -1.59375 6.515625 -1.65625 C 6.679688 -1.71875 6.820312 -1.785156 6.9375 -1.859375 C 7.0625 -1.929688 7.164062 -1.992188 7.25 -2.046875 C 7.332031 -2.109375 7.40625 -2.140625 7.46875 -2.140625 C 7.582031 -2.140625 7.6875 -2.070312 7.78125 -1.9375 L 8.40625 -0.921875 C 8.03125 -0.566406 7.582031 -0.289062 7.0625 -0.09375 C 6.539062 0.09375 6.003906 0.1875 5.453125 0.1875 Z M 5.453125 0.1875 "/></g></g></g><g fill="#4f334a" fill-opacity="1"><g transform="translate(117.754981, 25.000266)"><g><path d="M 3.96875 -12.21875 L 3.96875 0 L 1.8125 0 L 1.8125 -12.21875 Z M 4.421875 -16.046875 C 4.421875 -15.835938 4.378906 -15.640625 4.296875 -15.453125 C 4.210938 -15.273438 4.097656 -15.113281 3.953125 -14.96875 C 3.816406 -14.832031 3.65625 -14.722656 3.46875 -14.640625 C 3.28125 -14.566406 3.082031 -14.53125 2.875 -14.53125 C 2.664062 -14.53125 2.46875 -14.566406 2.28125 -14.640625 C 2.101562 -14.722656 1.945312 -14.832031 1.8125 -14.96875 C 1.675781 -15.113281 1.566406 -15.273438 1.484375 -15.453125 C 1.398438 -15.640625 1.359375 -15.835938 1.359375 -16.046875 C 1.359375 -16.253906 1.398438 -16.453125 1.484375 -16.640625 C 1.566406 -16.828125 1.675781 -16.988281 1.8125 -17.125 C 1.945312 -17.269531 2.101562 -17.382812 2.28125 -17.46875 C 2.46875 -17.550781 2.664062 -17.59375 2.875 -17.59375 C 3.082031 -17.59375 3.28125 -17.550781 3.46875 -17.46875 C 3.65625 -17.382812 3.816406 -17.269531 3.953125 -17.125 C 4.097656 -16.988281 4.210938 -16.828125 4.296875 -16.640625 C 4.378906 -16.453125 4.421875 -16.253906 4.421875 -16.046875 Z M 4.421875 -16.046875 "/></g></g></g><g fill="#4f334a" fill-opacity="1"><g transform="translate(123.541255, 25.000266)"><g><path d="M 9.875 -7.4375 C 9.875 -7.9375 9.800781 -8.390625 9.65625 -8.796875 C 9.519531 -9.210938 9.316406 -9.570312 9.046875 -9.875 C 8.773438 -10.175781 8.445312 -10.410156 8.0625 -10.578125 C 7.675781 -10.742188 7.238281 -10.828125 6.75 -10.828125 C 5.71875 -10.828125 4.898438 -10.523438 4.296875 -9.921875 C 3.703125 -9.328125 3.332031 -8.5 3.1875 -7.4375 Z M 11.609375 -1.71875 C 11.335938 -1.394531 11.019531 -1.113281 10.65625 -0.875 C 10.289062 -0.632812 9.894531 -0.4375 9.46875 -0.28125 C 9.050781 -0.132812 8.613281 -0.0234375 8.15625 0.046875 C 7.707031 0.128906 7.265625 0.171875 6.828125 0.171875 C 5.984375 0.171875 5.203125 0.03125 4.484375 -0.25 C 3.773438 -0.539062 3.160156 -0.960938 2.640625 -1.515625 C 2.128906 -2.066406 1.726562 -2.75 1.4375 -3.5625 C 1.144531 -4.375 1 -5.304688 1 -6.359375 C 1 -7.203125 1.128906 -7.992188 1.390625 -8.734375 C 1.648438 -9.472656 2.023438 -10.113281 2.515625 -10.65625 C 3.003906 -11.195312 3.601562 -11.625 4.3125 -11.9375 C 5.019531 -12.25 5.816406 -12.40625 6.703125 -12.40625 C 7.429688 -12.40625 8.109375 -12.28125 8.734375 -12.03125 C 9.359375 -11.789062 9.894531 -11.4375 10.34375 -10.96875 C 10.800781 -10.507812 11.15625 -9.941406 11.40625 -9.265625 C 11.664062 -8.585938 11.796875 -7.8125 11.796875 -6.9375 C 11.796875 -6.601562 11.757812 -6.378906 11.6875 -6.265625 C 11.613281 -6.148438 11.476562 -6.09375 11.28125 -6.09375 L 3.125 -6.09375 C 3.144531 -5.320312 3.25 -4.648438 3.4375 -4.078125 C 3.625 -3.515625 3.882812 -3.039062 4.21875 -2.65625 C 4.5625 -2.269531 4.96875 -1.984375 5.4375 -1.796875 C 5.90625 -1.609375 6.425781 -1.515625 7 -1.515625 C 7.539062 -1.515625 8.003906 -1.578125 8.390625 -1.703125 C 8.785156 -1.828125 9.125 -1.960938 9.40625 -2.109375 C 9.6875 -2.253906 9.921875 -2.390625 10.109375 -2.515625 C 10.296875 -2.640625 10.457031 -2.703125 10.59375 -2.703125 C 10.769531 -2.703125 10.90625 -2.632812 11 -2.5 Z M 11.609375 -1.71875 "/></g></g></g><g fill="#4f334a" fill-opacity="1"><g transform="translate(136.271052, 25.000266)"><g><path d="M 3.734375 -9.765625 C 4.117188 -10.597656 4.59375 -11.25 5.15625 -11.71875 C 5.71875 -12.1875 6.40625 -12.421875 7.21875 -12.421875 C 7.476562 -12.421875 7.722656 -12.394531 7.953125 -12.34375 C 8.191406 -12.289062 8.40625 -12.203125 8.59375 -12.078125 L 8.4375 -10.46875 C 8.382812 -10.269531 8.265625 -10.171875 8.078125 -10.171875 C 7.960938 -10.171875 7.796875 -10.191406 7.578125 -10.234375 C 7.359375 -10.285156 7.113281 -10.3125 6.84375 -10.3125 C 6.457031 -10.3125 6.113281 -10.253906 5.8125 -10.140625 C 5.507812 -10.035156 5.238281 -9.867188 5 -9.640625 C 4.769531 -9.421875 4.5625 -9.148438 4.375 -8.828125 C 4.1875 -8.503906 4.015625 -8.132812 3.859375 -7.71875 L 3.859375 0 L 1.703125 0 L 1.703125 -12.21875 L 2.921875 -12.21875 C 3.160156 -12.21875 3.320312 -12.171875 3.40625 -12.078125 C 3.5 -11.992188 3.5625 -11.84375 3.59375 -11.625 Z M 3.734375 -9.765625 "/></g></g></g></svg>