<svg version="1.1" id="Layer_1" xmlns="http://www.w3.org/2000/svg" xmlns:xlink="http://www.w3.org/1999/xlink" x="0px" y="0px"
	 width="100%" viewBox="0 0 190 114" enable-background="new 0 0 190 114" xml:space="preserve">
<path fill="none" opacity="1.000000" stroke="#000000" stroke-linecap="round" stroke-linejoin="round" stroke-width="4.000000"
	d="
M25.500000,46.500000 
	C25.500000,53.166668 25.500000,59.833332 25.500000,66.500000 
"/>
<path fill="none" opacity="1.000000" stroke="#000000" stroke-linecap="round" stroke-linejoin="round" stroke-width="3.000000"
	d="
M51.500000,49.500000 
	C50.166668,49.166668 48.669685,49.115456 47.527355,48.452843 
	C41.472740,44.940823 34.645996,48.090012 34.108101,55.008404 
	C33.946312,57.089348 33.141842,59.567921 35.000000,61.500000 
"/>
<path fill="none" opacity="1.000000" stroke="#000000" stroke-linecap="round" stroke-linejoin="round" stroke-width="3.000000"
	d="
M72.500000,45.500000 
	C67.742958,46.122726 67.001007,51.002792 64.126442,53.637928 
	C62.638206,55.002197 61.531010,56.122486 59.500000,56.000000 
"/>
<path fill="none" opacity="1.000000" stroke="#000000" stroke-linecap="round" stroke-linejoin="round" stroke-width="4.000000"
	d="
M49.500000,62.500000 
	C44.396008,67.861404 42.436760,67.861404 35.500000,62.500000 
"/>
<path fill="none" opacity="1.000000" stroke="#000000" stroke-linecap="round" stroke-linejoin="round" stroke-width="3.000000"
	d="
M137.500000,46.500000 
	C136.333328,46.500000 135.166641,46.494648 134.000000,46.500912 
	C128.498077,46.530449 126.949539,47.782326 128.184677,52.955914 
	C128.957443,56.192844 127.970222,59.000053 127.968704,61.999985 
	C127.967278,64.814270 128.776245,66.424294 132.004303,66.035797 
	C134.816956,65.697304 137.666672,65.666664 140.500000,65.500000 
"/>
<path fill="none" opacity="1.000000" stroke="#000000" stroke-linecap="round" stroke-linejoin="round" stroke-width="4.000000"
	d="
M160.500000,47.500000 
	C157.264587,47.819798 154.297531,46.071251 150.991592,46.420433 
	C148.553391,46.677959 147.448273,47.517765 147.480026,50.000256 
	C147.546112,55.166077 147.541229,60.333828 147.479019,65.499748 
	C147.455261,67.473289 148.872589,66.088165 149.500000,66.500000 
"/>
<path fill="none" opacity="1.000000" stroke="#000000" stroke-linecap="round" stroke-linejoin="round" stroke-width="5.000000"
	d="
M79.500000,64.500000 
	C83.253113,67.795959 87.480408,65.401802 91.500000,65.500000 
"/>
<path fill="none" opacity="1.000000" stroke="#000000" stroke-linecap="round" stroke-linejoin="round" stroke-width="4.000000"
	d="
M90.500000,46.500000 
	C88.166664,46.500000 85.832047,46.547485 83.500427,46.484337 
	C81.768349,46.437420 80.171654,46.509979 79.500000,48.500000 
"/>
<path fill="none" opacity="1.000000" stroke="#000000" stroke-linecap="round" stroke-linejoin="round" stroke-width="3.000000"
	d="
M90.500000,54.500000 
	C87.588669,55.532024 84.672493,56.262711 81.494965,56.095882 
	C80.109756,56.023155 80.141769,55.033195 79.500000,54.500000 
"/>
<path fill="none" opacity="1.000000" stroke="#000000" stroke-linecap="round" stroke-linejoin="round" stroke-width="3.000000"
	d="
M139.500000,55.500000 
	C136.166672,55.666668 132.833328,55.833332 129.500000,56.000000 
"/>
<path fill="none" opacity="1.000000" stroke="#000000" stroke-linecap="round" stroke-linejoin="round" stroke-width="4.000000"
	d="
M18.500000,46.500000 
	C13.833333,46.500000 9.166667,46.500000 4.500000,46.500000 
"/>
<path fill="none" opacity="1.000000" stroke="#000000" stroke-linecap="round" stroke-linejoin="round" stroke-width="4.000000"
	d="
M109.500000,46.500000 
	C105.166664,47.166321 100.833336,47.139927 96.500000,46.500000 
"/>
<path fill="none" opacity="1.000000" stroke="#000000" stroke-linecap="round" stroke-linejoin="round" stroke-width="4.000000"
	d="
M159.000000,53.500000 
	C156.758820,58.140511 152.495743,56.041351 149.000000,56.500000 
"/>
<path fill="none" opacity="1.000000" stroke="#000000" stroke-linecap="round" stroke-linejoin="round" stroke-width="4.000000"
	d="
M59.500000,45.500000 
	C55.631084,46.918404 57.060390,50.692551 57.767071,52.388729 
	C58.976582,55.291813 58.497822,57.279945 57.786636,60.072987 
	C57.263142,62.128899 55.395885,65.916656 59.500000,67.500000 
"/>
<path fill="none" opacity="1.000000" stroke="#000000" stroke-linecap="round" stroke-linejoin="round" stroke-width="3.000000"
	d="
M62.000000,57.000000 
	C64.755234,58.989910 66.545830,61.830574 68.462646,64.526558 
	C69.523819,66.019096 70.196106,67.794083 72.500000,67.500000 
"/>
<path fill="none" opacity="1.000000" stroke="#000000" stroke-linecap="round" stroke-linejoin="round" stroke-width="3.000000"
	d="
M157.500000,48.000000 
	C159.487091,48.918877 158.235825,52.716305 161.500000,52.500000 
"/>
<path fill="none" opacity="1.000000" stroke="#000000" stroke-linecap="round" stroke-linejoin="round" stroke-width="2.000000"
	d="
M102.500000,48.000000 
	C102.766182,49.152451 101.925850,50.462975 103.000000,51.500000 
"/>
<path fill="none" opacity="1.000000" stroke="#000000" stroke-linecap="round" stroke-linejoin="round" stroke-width="3.000000"
	d="
M10.500000,48.000000 
	C9.604516,54.146969 10.177033,60.333820 10.065223,66.501183 
	C10.059347,66.825348 11.000000,67.166664 11.500001,67.500000 
"/>
<path fill="none" opacity="1.000000" stroke="#000000" stroke-linecap="round" stroke-linejoin="round" stroke-width="3.000000"
	d="
M155.500000,57.000000 
	C158.620255,58.546978 158.157364,62.125206 159.197861,64.625725 
	C160.148636,66.910583 161.181320,66.311348 162.500000,66.500000 
"/>
<path fill="none" opacity="1.000000" stroke="#000000" stroke-linecap="round" stroke-linejoin="round" stroke-width="2.000000"
	d="
M102.500000,62.000000 
	C103.070648,63.868248 99.773193,67.143082 104.500000,67.500000 
"/>
<path fill="none" opacity="1.000000" stroke="#000000" stroke-linecap="round" stroke-linejoin="round" stroke-width="2.000000"
	d="
M79.000000,59.500000 
	C77.581482,61.605553 79.068802,61.531731 80.500000,61.500000 
"/>
<path fill="none" opacity="1.000000" stroke="#000000" stroke-linecap="round" stroke-linejoin="round" stroke-width="2.000000"
	d="
M79.000000,49.500000 
	C77.581482,51.605553 79.068802,51.531731 80.500000,51.500000 
"/>
<path fill="none" opacity="1.000000" stroke="#000000" stroke-linecap="round" stroke-linejoin="round" stroke-width="4.000000"
	d="
M117.500000,46.500000 
	C117.500000,53.166668 117.500000,59.833332 117.500000,66.500000 
"/>
<path fill="none" opacity="1.000000" stroke="#000000" stroke-linecap="round" stroke-linejoin="round" stroke-width="2.000000"
	d="
M104.500000,53.500000 
	C103.759445,53.314438 102.453957,54.074024 102.528343,52.501339 
	C102.588570,51.228111 103.713974,51.594616 104.500000,51.500000 
"/>
</svg>